HIERARCHY
ROOT Hips
{
	OFFSET 0.000000 0.000000 0.000000
	CHANNELS 6 Xposition Yposition Zposition Zrotation Yrotation Xrotation 
	JOINT LHipJoint
	{
		OFFSET 0.000000 0.000000 0.000000
		CHANNELS 3 Zrotation Yrotation Xrotation
		JOINT LeftUpLeg
		{
			OFFSET 1.363060 -1.794630 0.839290
			CHANNELS 3 Zrotation Yrotation Xrotation
			JOINT LeftLeg
			{
				OFFSET 2.448110 -6.726130 0.000000
				CHANNELS 3 Zrotation Yrotation Xrotation
				JOINT LeftFoot
				{
					OFFSET 2.562200 -7.039590 0.000000
					CHANNELS 3 Zrotation Yrotation Xrotation
					JOINT LeftToeBase
					{
						OFFSET 0.157640 -0.433110 2.322550
						CHANNELS 3 Zrotation Yrotation Xrotation
						End Site
						{
							OFFSET 0.000000 0.000000 0.000000
						}
					}
				}
			}
		}
	}
	JOINT RHipJoint
	{
		OFFSET 0.000000 0.000000 0.000000
		CHANNELS 3 Zrotation Yrotation Xrotation
		JOINT RightUpLeg
		{
			OFFSET -1.305520 -1.794630 0.839290
			CHANNELS 3 Zrotation Yrotation Xrotation
			JOINT RightLeg
			{
				OFFSET -2.542530 -6.985550 0.000000
				CHANNELS 3 Zrotation Yrotation Xrotation
				JOINT RightFoot
				{
					OFFSET -2.568260 -7.056230 0.000000
					CHANNELS 3 Zrotation Yrotation Xrotation
					JOINT RightToeBase
					{
						OFFSET -0.164730 -0.452590 2.363150
						CHANNELS 3 Zrotation Yrotation Xrotation
						End Site
						{
							OFFSET 0.000000 0.000000 0.000000
						}
					}
				}
			}
		}
	}
	JOINT LowerBack
	{
		OFFSET 0.000000 0.000000 0.000000
		CHANNELS 3 Zrotation Yrotation Xrotation
		JOINT Spine
		{
			OFFSET 0.028270 2.035590 -0.193380
			CHANNELS 3 Zrotation Yrotation Xrotation
			JOINT Spine1
			{
				OFFSET 0.056720 2.048850 -0.042750
				CHANNELS 3 Zrotation Yrotation Xrotation
				JOINT Neck
				{
					OFFSET 0.000000 0.000000 0.000000
					CHANNELS 3 Zrotation Yrotation Xrotation
					JOINT Neck1
					{
						OFFSET -0.054170 1.746240 0.172020
						CHANNELS 3 Zrotation Yrotation Xrotation
						JOINT Head
						{
							OFFSET 0.104070 1.761360 -0.123970
							CHANNELS 3 Zrotation Yrotation Xrotation
							End Site
							{
								OFFSET 0.000000 0.000000 0.000000
							}
						}
					}
				}
				JOINT LeftShoulder
				{
					OFFSET 0.000000 0.000000 0.000000
					CHANNELS 3 Zrotation Yrotation Xrotation
					JOINT LeftArm
					{
						OFFSET 3.362410 1.200890 -0.311210
						CHANNELS 3 Zrotation Yrotation Xrotation
						JOINT LeftForeArm
						{
							OFFSET 4.983000 -0.000000 -0.000000
							CHANNELS 3 Zrotation Yrotation Xrotation
							JOINT LeftHand
							{
								OFFSET 3.483560 -0.000000 -0.000000
								CHANNELS 3 Zrotation Yrotation Xrotation
								JOINT LeftFingerBase
								{
									OFFSET 0.000000 0.000000 0.000000
									CHANNELS 3 Zrotation Yrotation Xrotation
									JOINT LeftHandIndex1
									{
										OFFSET 0.715260 -0.000000 -0.000000
										CHANNELS 3 Zrotation Yrotation Xrotation
										End Site
										{
											OFFSET 0.000000 0.000000 0.000000
										}
									}
								}
								JOINT LThumb
								{
									OFFSET 0.000000 0.000000 0.000000
									CHANNELS 3 Zrotation Yrotation Xrotation
									End Site
									{
										OFFSET 0.000000 0.000000 0.000000
									}
								}
							}
						}
					}
				}
				JOINT RightShoulder
				{
					OFFSET 0.000000 0.000000 0.000000
					CHANNELS 3 Zrotation Yrotation Xrotation
					JOINT RightArm
					{
						OFFSET -3.136600 1.374050 -0.404650
						CHANNELS 3 Zrotation Yrotation Xrotation
						JOINT RightForeArm
						{
							OFFSET -5.241900 -0.000000 -0.000000
							CHANNELS 3 Zrotation Yrotation Xrotation
							JOINT RightHand
							{
								OFFSET -3.444170 -0.000000 -0.000000
								CHANNELS 3 Zrotation Yrotation Xrotation
								JOINT RightFingerBase
								{
									OFFSET 0.000000 0.000000 0.000000
									CHANNELS 3 Zrotation Yrotation Xrotation
									JOINT RightHandIndex1
									{
										OFFSET -0.622530 -0.000000 -0.000000
										CHANNELS 3 Zrotation Yrotation Xrotation
										End Site
										{
											OFFSET 0.000000 0.000000 0.000000
										}
									}
								}
								JOINT RThumb
								{
									OFFSET 0.000000 0.000000 0.000000
									CHANNELS 3 Zrotation Yrotation Xrotation
									End Site
									{
										OFFSET 0.000000 0.000000 0.000000
									}
								}
							}
						}
					}
				}
			}
		}
	}
}
MOTION
Frames: 8
Frame Time: 0.008333
26.442931 17.461010 2.433273 149.308119 -80.881816 -122.400235 -8.998128 -0.243820 4.539371 -12.395108 -8.951139 -63.209206 1.611726 3.308980 70.313874 1.832381 9.247440 2.016325 1.741800 0.000000 -31.524300 12.416779 -4.356648 2.871996 -1.120411 -6.325049 -5.997261 1.259041 -0.203945 3.203708 0.220124 4.490196 20.606731 1.865100 -0.000000 -72.607700 -6.357054 2.862174 -8.852059 -1.484025 3.220118 -4.745611 -2.791408 2.866377 0.742793 1.003488 -7.440579 -9.742909 -0.121769 0.014794 -0.513998 0.000000 0.000000 0.000000 4.298415 25.109637 3.113212 -45.607128 43.387783 -25.746104 -3.950354 -4.455205 0.012651 17.007556 -1.632012 -0.247777 -0.360629 -0.007351 -0.000000 0.000000 0.000000 0.000000 0.000000 0.000000 0.000000 -8.412897 -2.730181 -4.179425 13.826090 31.620233 -69.411303 0.900124 89.366214 -0.286536 -22.626992 12.303622 -2.665129 0.158785 -0.850877 -0.000000 0.000000 0.000000 0.000000 0.000000 0.000000 0.000000 
26.206000 17.590019 2.436721 147.334022 -81.054089 -120.520345 -8.786780 -0.014922 4.804748 -12.928895 -9.449596 -62.485417 1.416496 3.130229 67.473182 1.784127 9.059154 2.958987 1.886300 0.000000 -33.191300 12.676491 -4.474087 2.767823 -1.597049 -7.624903 -5.457811 1.193652 -0.248435 2.387468 0.119891 4.708514 23.434799 2.228300 -0.000000 -69.372300 -6.741118 2.954249 -9.087704 -1.549657 3.356138 -4.787841 -2.701795 2.997173 0.790047 0.815309 -7.652730 -9.619699 0.014003 0.023988 -0.472515 0.000000 0.000000 0.000000 4.615067 25.324605 3.108066 -45.366498 43.855830 -26.633949 -3.903508 -4.445986 0.010292 17.358645 -1.383898 -0.214792 -0.366883 -0.004121 -0.000000 0.000000 0.000000 0.000000 0.000000 0.000000 0.000000 -9.228622 -3.086370 -4.403232 13.916417 31.897935 -70.582378 -178.905720 89.238137 179.705957 -23.060188 12.379398 -2.735584 0.165084 -0.859556 -0.000000 0.000000 0.000000 0.000000 0.000000 0.000000 0.000000 
25.972928 17.710309 2.441034 145.521347 -81.256213 -118.814070 -8.588027 0.214051 5.038476 -13.416342 -9.833949 -61.686954 1.216575 2.956827 64.501151 1.757921 9.037718 3.857864 2.062700 -0.000000 -34.666800 12.893166 -4.563135 2.661624 -1.987837 -8.713546 -4.973916 1.119088 -0.288768 2.064025 -0.002673 4.439553 25.334610 2.273999 0.000000 -65.751600 -7.074070 3.038187 -9.270031 -1.600749 3.480635 -4.819023 -2.604368 3.117791 0.830700 0.617254 -7.871775 -9.511546 0.153863 0.033842 -0.436624 0.000000 0.000000 0.000000 4.931226 25.517486 3.121787 -45.341019 44.309012 -27.344472 -3.873531 -4.629252 0.007701 17.489649 -1.106279 -0.173405 -0.371627 -0.001153 -0.000000 0.000000 0.000000 0.000000 0.000000 0.000000 0.000000 -10.070854 -3.446160 -4.617715 14.058368 32.222295 -71.623591 -178.709792 87.900989 179.698328 -23.517137 12.445746 -2.807638 0.172523 -0.868041 -0.000000 0.000000 0.000000 0.000000 0.000000 0.000000 0.000000 
25.743801 17.820868 2.446436 143.895092 -81.496097 -117.303070 -8.407436 0.437508 5.234413 -13.845966 -10.097906 -60.821080 1.009831 2.788611 61.414439 1.747018 9.138631 4.687998 2.264100 0.000000 -35.844100 13.059452 -4.633323 2.564914 -2.274194 -9.492519 -4.493919 1.025157 -0.327861 2.176978 -0.143305 3.594561 26.375684 1.928200 -0.000000 -62.158900 -7.347306 3.115755 -9.401903 -1.634772 3.594037 -4.839351 -2.497202 3.228457 0.864570 0.406519 -8.090901 -9.421206 0.298626 0.044457 -0.407054 0.000000 0.000000 0.000000 5.225365 25.701986 3.153043 -45.516171 44.742822 -27.876382 -3.862012 -5.012801 0.004892 17.386137 -0.792301 -0.123815 -0.374697 0.001511 -0.000000 0.000000 0.000000 0.000000 0.000000 0.000000 0.000000 -10.946696 -3.798919 -4.821691 14.245926 32.563397 -72.523749 -178.513669 86.626538 179.690307 -24.030669 12.507727 -2.886689 0.181714 -0.876331 -0.000000 0.000000 0.000000 0.000000 0.000000 0.000000 0.000000 
25.518654 17.920695 2.453187 142.465515 -81.778634 -115.988362 -8.248291 0.651551 5.393423 -14.210365 -10.246654 -59.904212 0.794319 2.624371 58.234506 1.744414 9.313449 5.424347 2.479100 0.000000 -36.649700 13.173651 -4.690216 2.485051 -2.442557 -9.919399 -4.003143 0.907550 -0.369143 2.704468 -0.300674 2.216022 26.649630 1.222100 0.000000 -58.877400 -7.556604 3.187266 -9.491913 -1.650493 3.695819 -4.850156 -2.379225 3.328399 0.892747 0.182829 -8.300634 -9.350549 0.448377 0.055855 -0.384240 0.000000 0.000000 0.000000 5.474328 25.895175 3.199718 -45.862140 45.147097 -28.240380 -3.868420 -5.587019 0.001939 17.053331 -0.445383 -0.068721 -0.375976 0.003869 -0.000000 0.000000 0.000000 0.000000 0.000000 0.000000 0.000000 -11.857879 -4.132229 -5.014416 14.473022 32.890594 -73.268961 -178.318812 85.419400 179.681582 -24.636506 12.572348 -2.978736 0.193273 -0.884384 -0.000000 0.000000 0.000000 0.000000 0.000000 0.000000 0.000000 
25.297207 18.008893 2.461237 141.195270 -82.102623 -114.831579 -8.109201 0.854750 5.519692 -14.512828 -10.296302 -58.948160 0.568106 2.462074 54.983099 1.743307 9.515550 6.051728 2.694101 0.000000 -37.117101 13.242040 -4.732798 2.419228 -2.495121 -10.022836 -3.515922 0.768778 -0.416961 3.664273 -0.472677 0.472058 26.250990 0.284401 -0.000000 -56.032700 -7.708309 3.251145 -9.543328 -1.649169 3.784383 -4.851826 -2.250271 3.415834 0.917163 -0.050410 -8.487978 -9.300965 0.602831 0.068029 -0.368527 0.000000 0.000000 0.000000 5.663211 26.114548 3.260684 -46.348345 45.508307 -28.442410 -3.890457 -6.339384 -0.001105 16.522039 -0.062720 -0.010124 -0.375461 0.005847 -0.000000 0.000000 0.000000 0.000000 0.000000 0.000000 0.000000 -12.801504 -4.431809 -5.195208 14.736941 33.170240 -73.846723 -178.125289 84.274872 179.671894 -25.366782 12.649321 -3.090280 0.207692 -0.892165 -0.000000 0.000000 0.000000 0.000000 0.000000 0.000000 0.000000 
25.078829 18.085240 2.471258 140.138585 -82.494511 -113.883441 -8.002987 1.035583 5.610662 -14.713482 -10.240385 -57.976466 0.331248 2.300637 51.698490 1.734004 9.674737 6.544658 2.882801 -0.000000 -37.259300 13.251157 -4.772009 2.376314 -2.373342 -9.741692 -2.969389 0.610443 -0.469706 4.918195 -0.669963 -1.576185 25.424573 -0.804300 -0.000000 -53.938500 -7.775196 3.306571 -9.561651 -1.625370 3.856460 -4.844557 -2.112161 3.487559 0.939431 -0.290413 -8.644117 -9.273910 0.759651 0.080796 -0.360271 0.000000 0.000000 0.000000 5.754143 26.382191 3.331764 -46.926395 45.807933 -28.492408 -3.924794 -7.244438 -0.004123 15.837908 0.349627 0.048776 -0.373305 0.007311 -0.000000 0.000000 0.000000 0.000000 0.000000 0.000000 0.000000 -13.766725 -4.686699 -5.364733 15.020648 33.380289 -74.245334 -177.935246 83.192853 179.661154 -26.241033 12.750883 -3.227622 0.225266 -0.899619 -0.000000 0.000000 0.000000 0.000000 0.000000 0.000000 0.000000 
24.863139 18.149063 2.482806 139.187106 -82.937456 -113.035204 -7.920147 1.199432 5.682549 -14.837137 -10.115708 -57.006066 0.082351 2.137028 48.399636 1.711509 9.758124 6.906918 3.033200 0.000001 -37.220300 13.221875 -4.799693 2.337245 -2.118224 -9.254271 -2.459681 0.450265 -0.535308 6.573947 -0.875204 -3.591851 24.236664 -1.824500 -0.000000 -52.472100 -7.783186 3.349718 -9.552291 -1.585541 3.910036 -4.829525 -1.966901 3.541399 0.963100 -0.527583 -8.754619 -9.269486 0.917102 0.094012 -0.359410 0.000000 0.000000 0.000000 5.747547 26.711991 3.411719 -47.560556 46.022114 -28.431333 -3.966028 -8.256868 -0.007020 15.059448 0.772987 0.103579 -0.369700 0.008419 -0.000000 0.000000 0.000000 0.000000 0.000000 0.000000 0.000000 -14.738757 -4.883975 -5.521602 15.322185 33.492930 -74.455554 -177.748009 82.162526 179.649394 -27.265429 12.888416 -3.395360 0.245875 -0.906727 -0.000000 0.000000 0.000000 0.000000 0.000000 0.000000 0.000000 
